<svg xmlns="http://www.w3.org/2000/svg" width="81" height="14" viewBox="0 0 81 14" fill="none">
  <g clip-path="url(#clip0_20005351_290742)">
    <path fill-rule="evenodd" clip-rule="evenodd" d="M22.4572 0.842773L15.6666 14.1178H9.28828L12.1302 8.61602H12.0027C9.65814 11.6595 6.16003 13.6631 1.17578 14.1178V8.69221C1.17578 8.69221 4.36433 8.50385 6.23878 6.53314H1.17578V0.842878H6.86604V5.52304L6.99376 5.52251L9.31904 0.842878H13.6224V5.49336L13.7501 5.49315L16.1626 0.842773H22.4572Z" fill="#121313"/>
    <path d="M59.4873 12.6525H61.3199V2.1334H59.4873V12.6525Z" fill="#121313"/>
    <path fill-rule="evenodd" clip-rule="evenodd" d="M49.3842 12.5451C49.7825 12.7107 50.1875 12.7935 50.5992 12.7935C51.2794 12.7935 51.8881 12.6279 52.4251 12.2967C52.9621 11.9656 53.3784 11.5091 53.6737 10.9273C53.9691 10.3411 54.1167 9.67644 54.1167 8.93356C54.1167 8.19067 53.9646 7.52612 53.6603 6.93986C53.3559 6.35361 52.9331 5.89937 52.3915 5.57714C51.85 5.25045 51.2347 5.08935 50.5455 5.09382C50.107 5.09382 49.6863 5.17885 49.2835 5.34891C48.8807 5.51897 48.5451 5.76063 48.2766 6.0739C48.2558 6.09775 48.2357 6.12184 48.2162 6.14617V2.14015H46.3768V12.6526H48.2027L48.199 11.6705C48.2462 11.7284 48.2968 11.785 48.3504 11.8403C48.6412 12.1401 48.9859 12.375 49.3842 12.5451ZM51.2638 10.8468C50.9639 11.0303 50.6216 11.122 50.2367 11.122C49.8563 11.122 49.5072 11.028 49.1895 10.8401C48.8717 10.6476 48.6189 10.3858 48.4309 10.0546C48.2474 9.72349 48.1557 9.34752 48.1557 8.92685C48.1513 8.50618 48.2407 8.13027 48.4242 7.79911C48.6122 7.46347 48.865 7.2039 49.1828 7.02042C49.5005 6.83246 49.8519 6.74071 50.2367 6.74519C50.6216 6.74071 50.9639 6.83021 51.2638 7.01371C51.5681 7.19271 51.8008 7.45004 51.9619 7.78568C52.1275 8.11685 52.2103 8.49725 52.2103 8.92685C52.2103 9.35651 52.1275 9.73692 51.9619 10.0681C51.8008 10.3993 51.5681 10.6588 51.2638 10.8468Z" fill="#121313"/>
    <path d="M25.1121 2.77115H27.2066L29.0801 9.61337L31.0732 2.77115H32.8186L34.9801 9.47605L36.7792 2.77115H38.699L35.8662 12.6525H34.0604L31.8624 6.10235L29.8447 12.6525H28.0188L25.1121 2.77115Z" fill="#121313"/>
    <path fill-rule="evenodd" clip-rule="evenodd" d="M41.7921 12.827C41.0626 12.8315 40.4048 12.6704 39.8185 12.3437C39.2367 12.0125 38.778 11.5538 38.4423 10.9676C38.1112 10.3813 37.9456 9.71225 37.9456 8.96037C37.9456 8.23091 38.1157 7.57084 38.4558 6.98011C38.7959 6.38937 39.2568 5.92842 39.8386 5.59725C40.4205 5.26609 41.0693 5.1005 41.7854 5.1005C42.5909 5.1005 43.2958 5.27951 43.8999 5.63753C44.5086 5.99555 44.9628 6.50349 45.2627 7.16135C45.567 7.81474 45.6766 8.56434 45.5916 9.41017H39.8415C39.8576 9.74714 39.9417 10.0537 40.0938 10.3298C40.2638 10.6341 40.501 10.8713 40.8053 11.0414C41.1097 11.2114 41.4497 11.2965 41.8257 11.2965C42.1121 11.292 42.3784 11.2428 42.6245 11.1488C42.8707 11.0504 43.0787 10.9184 43.2488 10.7527C43.4233 10.5871 43.5464 10.3992 43.618 10.1889H45.5379C45.4215 10.7035 45.1888 11.1623 44.8398 11.565C44.4907 11.9633 44.0521 12.2743 43.524 12.4981C42.996 12.7218 42.4186 12.8315 41.7921 12.827ZM40.1005 7.56413C39.9932 7.75115 39.9189 7.95251 39.8775 8.1683H43.6891C43.6615 7.89572 43.5773 7.64734 43.4368 7.42316C43.2756 7.15912 43.0564 6.95549 42.7789 6.81229C42.5015 6.6646 42.1882 6.59076 41.8391 6.59076C41.4676 6.59076 41.1298 6.67579 40.8254 6.84585C40.5211 7.01591 40.2795 7.25534 40.1005 7.56413Z" fill="#121313"/>
    <path d="M55.4663 5.25491C55.4663 4.65523 55.6027 4.12267 55.8757 3.65725C56.1487 3.18735 56.5314 2.82261 57.0236 2.56305C57.5203 2.29901 58.0999 2.16251 58.7622 2.15356V3.78479C58.4534 3.78927 58.1894 3.85416 57.9701 3.97947C57.7553 4.1003 57.5897 4.27707 57.4734 4.50978C57.3663 4.72403 57.3085 4.9724 57.3 5.25491H58.722V6.80559H57.2989V12.6525H55.4663V6.80559H54.2848V5.25491H55.4663Z" fill="#121313"/>
    <path fill-rule="evenodd" clip-rule="evenodd" d="M65.9783 12.8136C65.2309 12.8136 64.5619 12.6502 63.9711 12.3236C63.3849 11.9923 62.924 11.5359 62.5883 10.9541C62.2571 10.3679 62.0916 9.7033 62.0916 8.96034C62.0916 8.21303 62.2571 7.5462 62.5883 6.95994C62.924 6.3692 63.3849 5.91049 63.9711 5.5838C64.5619 5.2571 65.2309 5.09375 65.9783 5.09375C66.7301 5.09375 67.4015 5.2571 67.9921 5.5838C68.5874 5.91049 69.0506 6.36696 69.3817 6.95323C69.7129 7.53948 69.8807 8.20853 69.8852 8.96034C69.8807 9.7033 69.7129 10.3679 69.3817 10.9541C69.055 11.5359 68.5941 11.9923 67.9989 12.3236C67.4037 12.6502 66.7301 12.8136 65.9783 12.8136ZM65.9783 11.1287C66.3722 11.1287 66.7212 11.0391 67.0255 10.8601C67.3299 10.6766 67.5648 10.4215 67.7304 10.0948C67.896 9.7637 67.9787 9.38551 67.9787 8.96034C67.9787 8.53075 67.896 8.15034 67.7304 7.81918C67.5648 7.48802 67.3299 7.23293 67.0255 7.05392C66.7212 6.87043 66.3722 6.77869 65.9783 6.77869C65.589 6.77869 65.2422 6.87043 64.9378 7.05392C64.638 7.23293 64.4052 7.48802 64.2397 7.81918C64.0741 8.15034 63.9936 8.53075 63.998 8.96034C63.998 9.38551 64.0808 9.7637 64.2464 10.0948C64.4165 10.4215 64.6491 10.6766 64.9445 10.8601C65.2444 11.0391 65.589 11.1287 65.9783 11.1287Z" fill="#121313"/>
    <path d="M71.8655 5.2549H69.8249L72.0334 12.6525H73.819L75.2716 7.92765L76.8395 12.6525H78.5985L80.8139 5.2549H78.9679L77.7112 9.85946L76.3225 5.2549H74.5373L73.1553 9.96087L71.8655 5.2549Z" fill="#121313"/>
  </g>
  <defs>
    <clipPath id="clip0_20005351_290742">
      <rect width="81" height="14" fill="white"/>
    </clipPath>
  </defs>
</svg>
