<svg width="67" height="35" viewBox="0 0 67 35" fill="none" xmlns="http://www.w3.org/2000/svg">
<path d="M9.03309 24.5258H4.89648V13.8051C4.89648 12.8858 5.11481 12.1504 5.55145 11.5989C5.98809 11.0244 6.50517 10.6107 7.10268 10.3579C7.72317 10.1051 8.35515 10.0132 8.99862 10.0821C9.66508 10.1281 10.2051 10.3004 10.6188 10.5992L24.0628 20.7684C24.2696 20.9292 24.3271 21.159 24.2351 21.4578C24.1432 21.7336 24.0053 21.9979 23.8215 22.2507C23.6376 22.4805 23.4538 22.6413 23.2699 22.7333C23.0861 22.8252 22.9942 22.7448 22.9942 22.492V10.0477H27.1308V20.7684C27.1308 21.5957 26.9239 22.2966 26.5103 22.8711C26.0966 23.4457 25.591 23.8708 24.9935 24.1466C24.396 24.4224 23.764 24.5488 23.0976 24.5258C22.4541 24.5028 21.8911 24.319 21.4085 23.9742L7.58528 13.4948C7.37845 13.334 7.33249 13.1271 7.44739 12.8743C7.58528 12.5986 7.76913 12.3688 7.99894 12.1849C8.22875 11.9781 8.45856 11.8517 8.68838 11.8057C8.91819 11.7368 9.03309 11.8287 9.03309 12.0815V24.5258Z" fill="#121313"/>
<path d="M30.2696 10.0132H34.4062V24.5258H30.2696V10.0132Z" fill="#121313"/>
<path d="M41.6681 24.5258H37.5315V22.4575C37.5315 21.9519 37.5775 21.4578 37.6694 20.9752C37.7843 20.4926 37.9337 20.033 38.1176 19.5963C38.3014 19.1597 38.5197 18.746 38.7725 18.3553C39.0483 17.9647 39.3585 17.6085 39.7033 17.2867C39.3585 16.965 39.0483 16.6088 38.7725 16.2181C38.5197 15.8274 38.3014 15.4138 38.1176 14.9771C37.9337 14.5405 37.7843 14.0809 37.6694 13.5982C37.5775 13.1156 37.5315 12.6215 37.5315 12.116V10.0477H41.6681V12.116C41.6681 12.5526 41.7486 12.9548 41.9095 13.3225C42.0703 13.6902 42.2886 14.0234 42.5644 14.3222C42.8632 14.5979 43.1964 14.8162 43.5641 14.9771C43.9318 15.138 44.334 15.2184 44.7706 15.2184H54.2503C54.687 15.2184 55.0891 15.138 55.4568 14.9771C55.8475 14.8162 56.1808 14.5979 56.4565 14.3222C56.7323 14.0234 56.9506 13.6902 57.1115 13.3225C57.2724 12.9548 57.3528 12.5526 57.3528 12.116V10.0477H61.4894V12.116C61.4894 12.6215 61.4319 13.1156 61.317 13.5982C61.2251 14.0809 61.0872 14.5405 60.9034 14.9771C60.7195 15.4138 60.4897 15.8274 60.2139 16.2181C59.9612 16.6088 59.6624 16.965 59.3177 17.2867C59.6624 17.6085 59.9612 17.9647 60.2139 18.3553C60.4897 18.746 60.7195 19.1597 60.9034 19.5963C61.0872 20.033 61.2251 20.4926 61.317 20.9752C61.4319 21.4578 61.4894 21.9519 61.4894 22.4575V24.5258H57.3528V22.4575C57.3528 22.0208 57.2724 21.6187 57.1115 21.251C56.9506 20.8833 56.7323 20.5615 56.4565 20.2858C56.1808 19.987 55.8475 19.7572 55.4568 19.5963C55.0891 19.4355 54.687 19.355 54.2503 19.355H44.7706C44.334 19.355 43.9318 19.4355 43.5641 19.5963C43.1964 19.7572 42.8632 19.987 42.5644 20.2858C42.2886 20.5615 42.0703 20.8833 41.9095 21.251C41.7486 21.6187 41.6681 22.0208 41.6681 22.4575V24.5258Z" fill="#121313"/>
</svg>
