<svg preserveAspectRatio="none" width="100%" height="100%" overflow="visible" style="display: block;" viewBox="0 0 15.3627 21.2172" fill="none" xmlns="http://www.w3.org/2000/svg">
<path id="Icon" d="M7.73609 0L6.23283 3.07235C5.15866 5.26726 3.719 7.26349 1.97544 8.97565L1.77793 9.16218C0.658127 10.2493 0.0183099 11.7383 0.000356919 13.2989V13.4964C-0.0293021 16.5524 1.79176 19.323 4.60888 20.5079L4.89417 20.6286C6.74182 21.4134 8.82912 21.4134 10.6768 20.6286H10.7426C13.5808 19.3955 15.4018 16.5796 15.3621 13.4854V8.72327C14.4163 10.8833 12.6986 12.6127 10.5451 13.5732C10.5451 13.5732 10.5451 13.5732 10.4793 13.5732C10.4134 13.5732 9.64534 13.8914 9.31615 13.5732C9.02214 13.2757 8.99399 12.8064 9.25032 12.4759L9.32713 12.4211H9.38199C11.9011 10.5063 12.4883 6.95856 10.7207 4.33421C9.29421 2.16162 7.73609 0 7.73609 0Z" fill="var(--fill-0, white)"/>
</svg>
