<svg preserveAspectRatio="none" width="100%" height="100%" overflow="visible" style="display: block;" viewBox="0 0 18.3578 16.2547" fill="none" xmlns="http://www.w3.org/2000/svg">
<path id="Icon" fill-rule="evenodd" clip-rule="evenodd" d="M17.8115 6.4103V6.66671C18.2651 7.23629 18.4488 7.97481 18.3151 8.69054L16.4104 14.643C16.0363 15.6124 15.1052 16.2526 14.066 16.2547H2.47255C1.10877 16.2251 0.0145065 15.1187 1.38556e-08 13.7547V3.43409C-0.000167003 1.55523 1.50961 0.0250514 3.3883 0H7.32606C8.59046 0 9.61545 1.025 9.61545 2.28939C9.61545 2.79515 10.0255 3.20515 10.5312 3.20515H14.6521C16.4044 3.23019 17.8117 4.65787 17.8115 6.4103ZM3.3883 1.37364C2.25035 1.37364 1.32785 2.29613 1.32785 3.43409V9.95428L2.30771 7.40848C2.6722 6.41834 3.61527 5.76038 4.67036 5.76011H15.8884C16.0468 5.74633 16.2062 5.74633 16.3646 5.76011C16.0945 5.0489 15.4129 4.57869 14.6521 4.57879H10.5312C9.2689 4.57377 8.24684 3.55171 8.24182 2.28939C8.24182 1.78363 7.83182 1.37364 7.32606 1.37364H3.3883Z" fill="var(--fill-0, #121313)"/>
</svg>
