<svg preserveAspectRatio="none" width="100%" height="100%" overflow="visible" style="display: block;" viewBox="0 0 50.3281 50.3281" fill="none" xmlns="http://www.w3.org/2000/svg">
<g id="icon">
<rect x="0.5" y="0.5" width="49.3281" height="49.3281" rx="24.6641" fill="var(--fill-0, #F9CD67)"/>
<rect x="0.5" y="0.5" width="49.3281" height="49.3281" rx="24.6641" stroke="var(--stroke-0, #121313)"/>
<path id="Arrow 4" d="M16.5774 28.7042L15.5143 29.3179L16.7418 31.4441L17.8049 30.8303L17.1911 29.7672L16.5774 28.7042ZM34.3227 20.8786C34.4982 20.2237 34.1095 19.5507 33.4547 19.3752L22.7835 16.5159C22.1287 16.3404 21.4556 16.729 21.2801 17.3838C21.1047 18.0387 21.4933 18.7118 22.1481 18.8872L31.6336 21.4289L29.092 30.9144C28.9165 31.5692 29.3051 32.2423 29.96 32.4178C30.6148 32.5932 31.2879 32.2046 31.4634 31.5498L34.3227 20.8786ZM17.1911 29.7672L17.8049 30.8303L33.7508 21.6239L33.137 20.5609L32.5232 19.4978L16.5774 28.7042L17.1911 29.7672Z" fill="var(--stroke-0, #121313)"/>
</g>
</svg>
