<svg preserveAspectRatio="none" width="100%" height="100%" overflow="visible" style="display: block;" viewBox="0 0 14.9663 22.4365" fill="none" xmlns="http://www.w3.org/2000/svg">
<path id="Icon" d="M13.3411 16.4109C12.3718 15.8071 11.1591 15.7479 10.1357 16.2545L6.22656 12.3454C6.51603 11.6851 6.58014 10.9479 6.40899 10.2475C6.37987 10.15 6.34506 10.0543 6.30474 9.96084L10.1357 6.12991C11.5701 6.83718 13.3062 6.38877 14.2187 5.0753C15.1312 3.76183 14.9456 1.97845 13.7823 0.880949C12.6189 -0.216548 10.8278 -0.297981 9.56963 0.689426C8.3115 1.67683 7.96489 3.43602 8.75445 4.82688L5.14504 8.38416C3.91609 7.51062 2.24827 7.5946 1.11328 8.58717C-0.0217167 9.57974 -0.327244 11.2215 0.374699 12.5559C1.07664 13.8903 2.6026 14.5687 4.06352 14.1957C4.36716 14.1065 4.65669 13.9749 4.92353 13.8048L8.83263 17.7139C8.02978 19.2835 8.62723 21.207 10.1781 22.0455C11.7289 22.884 13.6655 22.3307 14.5393 20.7994C15.4131 19.2682 14.9042 17.3194 13.3933 16.4109H13.3411Z" fill="var(--fill-0, white)"/>
</svg>
