<svg preserveAspectRatio="none" width="100%" height="100%" overflow="visible" style="display: block;" viewBox="0 0 18.5349 18.5349" fill="none" xmlns="http://www.w3.org/2000/svg">
<path id="Icon" fill-rule="evenodd" clip-rule="evenodd" d="M11.2089 0H7.32606C3.27999 0 0 3.27999 0 7.32606V11.2089C0 15.2549 3.27999 18.5349 7.32606 18.5349H11.2089C15.2549 18.5349 18.5349 15.2549 18.5349 11.2089V7.32606C18.5349 5.38307 17.7631 3.51966 16.3892 2.14575C15.0153 0.771851 13.1519 0 11.2089 0ZM13.0404 10.9891L9.71619 14.3133C9.44804 14.5811 9.01364 14.5811 8.74548 14.3133L5.45792 10.9982C5.20575 10.7276 5.21319 10.3059 5.47475 10.0444C5.7363 9.78282 6.158 9.77538 6.42862 10.0275L9.26747 12.8664L12.1063 10.0275C12.3745 9.75973 12.8089 9.75973 13.077 10.0275C13.2079 10.1551 13.2818 10.3301 13.2818 10.5129C13.2818 10.6957 13.2079 10.8707 13.077 10.9982L13.0404 10.9891ZM12.555 8.6997C12.7367 8.69759 12.9106 8.62541 13.0404 8.49823L13.077 8.50739C13.2079 8.37983 13.2818 8.20481 13.2818 8.02204C13.2818 7.83926 13.2079 7.66424 13.077 7.53668L9.75282 4.21248C9.62526 4.08158 9.45024 4.00775 9.26747 4.00775C9.08469 4.00775 8.90967 4.08158 8.78212 4.21248L5.45792 7.53668C5.20575 7.8073 5.21319 8.22901 5.47475 8.49056C5.7363 8.75211 6.158 8.75955 6.42862 8.50739L9.26747 5.66854L12.0697 8.49823C12.2005 8.62385 12.3737 8.69575 12.555 8.6997Z" fill="var(--fill-0, white)"/>
</svg>
