<svg preserveAspectRatio="none" width="100%" height="100%" overflow="visible" style="display: block;" viewBox="0 0 21.9251 21.9251" fill="none" xmlns="http://www.w3.org/2000/svg">
<path id="Icon" fill-rule="evenodd" clip-rule="evenodd" d="M13.259 0H8.66603C3.87991 0 0 3.87991 0 8.66603V13.259C0 18.0451 3.87991 21.9251 8.66603 21.9251H13.259C18.0451 21.9251 21.9251 18.0451 21.9251 13.259V8.66603C21.9251 6.36766 21.012 4.16342 19.3868 2.53822C17.7616 0.913026 15.5574 0 13.259 0ZM15.4255 12.999L11.4933 16.9313C11.1761 17.2481 10.6623 17.2481 10.3451 16.9313L6.45619 13.0099C6.15791 12.6898 6.16671 12.1909 6.4761 11.8815C6.78549 11.5721 7.28433 11.5633 7.60444 11.8616L10.9625 15.2197L14.3206 11.8616C14.6378 11.5448 15.1517 11.5448 15.4689 11.8616C15.6237 12.0125 15.7111 12.2196 15.7111 12.4358C15.7111 12.652 15.6237 12.859 15.4689 13.0099L15.4255 12.999ZM14.8514 10.2909C15.0663 10.2884 15.272 10.203 15.4255 10.0526L15.4689 10.0634C15.6237 9.91255 15.7111 9.70551 15.7111 9.48931C15.7111 9.2731 15.6237 9.06606 15.4689 8.91518L11.5367 4.98297C11.3858 4.82812 11.1787 4.74079 10.9625 4.74079C10.7463 4.74079 10.5393 4.82812 10.3884 4.98297L6.45619 8.91518C6.15791 9.23529 6.16671 9.73413 6.4761 10.0435C6.78549 10.3529 7.28433 10.3617 7.60444 10.0634L10.9625 6.70534L14.2773 10.0526C14.432 10.2012 14.6369 10.2862 14.8514 10.2909Z" fill="var(--fill-0, white)"/>
</svg>
