<svg xmlns="http://www.w3.org/2000/svg" width="28" height="28" viewBox="0 0 28 28" fill="none">
  <path fill-rule="evenodd" clip-rule="evenodd" d="M24.5705 14.0875C24.5705 19.8768 19.8773 24.57 14.088 24.57C8.29865 24.57 3.60547 19.8768 3.60547 14.0875C3.60547 8.29816 8.29865 3.60498 14.088 3.60498C19.8773 3.60498 24.5705 8.29816 24.5705 14.0875ZM15.0925 10.871C13.2916 11.6488 8.09914 13.8579 8.09914 13.8579C6.86856 14.3557 7.58886 14.8224 7.58886 14.8224C7.58886 14.8224 8.63937 15.1958 9.53983 15.4758C10.4403 15.7558 10.9205 15.4447 10.9205 15.4447C10.9205 15.4447 13.0215 14.0135 15.1525 12.4889C16.6532 11.431 16.2931 12.3022 15.9329 12.6756C15.1525 13.4845 13.8619 14.7602 12.7814 15.787C12.3012 16.2226 12.5413 16.5959 12.7514 16.7826C13.3624 17.3186 14.8016 18.2934 15.455 18.7359C15.6361 18.8585 15.7568 18.9403 15.7828 18.9606C15.9329 19.085 16.7733 19.6451 17.2836 19.5206C17.7938 19.3962 17.8538 18.6805 17.8538 18.6805C17.8538 18.6805 18.244 16.1292 18.6042 13.7957C18.6709 13.3375 18.7376 12.8889 18.7998 12.4707C18.9615 11.3835 19.0927 10.501 19.1144 10.1865C19.2045 9.1286 18.1239 9.56417 18.1239 9.56417C18.1239 9.56417 15.7828 10.5598 15.0925 10.871Z" fill="#121313"/>
</svg>
