<svg preserveAspectRatio="none" width="100%" height="100%" overflow="visible" style="display: block;" viewBox="0 0 24 24" fill="none" xmlns="http://www.w3.org/2000/svg">
<g id="Group">
<path id="Vector" d="M12.5833 10.648V18.968H11.0312V10.064L12.5833 10.648Z" fill="var(--fill-0, black)"/>
<path id="Vector_2" d="M6.38477 9.87198C6.38477 7.74398 7.54477 6.58398 8.90477 6.58398C10.2648 6.58398 10.4568 6.77598 12.0008 7.55198C13.5448 8.32798 13.9368 8.51998 14.7128 8.51998C15.4888 8.51998 15.8728 7.93598 15.8728 6.77598H17.2248C17.4168 9.09598 16.0648 10.064 14.7048 10.064C13.3448 10.064 12.9608 9.87198 11.6088 9.09598C10.2568 8.31998 9.86477 8.12798 9.08877 8.12798C8.31277 8.12798 7.92877 8.71198 7.73677 10.064L6.38477 9.87198Z" fill="var(--fill-0, black)"/>
<path id="Vector_3" d="M12 24C5.384 24 0 18.616 0 12C0 5.384 5.384 0 12 0C18.616 0 24 5.384 24 12C24 18.616 18.616 24 12 24ZM12 0.776C5.808 0.776 0.776 5.808 0.776 12C0.776 18.192 5.808 23.224 12 23.224C18.192 23.224 23.224 18.192 23.224 12C23.224 5.808 18.192 0.776 12 0.776Z" fill="var(--fill-0, black)"/>
</g>
</svg>
