<svg xmlns="http://www.w3.org/2000/svg" width="28" height="28" viewBox="0 0 28 28" fill="none">
<path d="M4 24.6738L5.47689 19.1634C4.28582 17.0169 3.9074 14.512 4.41108 12.1085C4.91476 9.705 6.26676 7.56406 8.21897 6.07856C10.1712 4.59306 12.5927 3.86264 15.0391 4.02134C17.4855 4.18004 19.7927 5.2172 21.5374 6.94252C23.2821 8.66783 24.3471 10.9656 24.5372 13.4141C24.7273 15.8626 24.0295 18.2976 22.5721 20.2724C21.1146 22.2471 18.9951 23.6291 16.6026 24.1648C14.2101 24.7004 11.705 24.3538 9.54706 23.1885L4 24.6738ZM9.81453 21.1264L10.1576 21.3303C11.7206 22.2584 13.5463 22.6425 15.35 22.4227C17.1537 22.2028 18.8342 21.3915 20.1295 20.115C21.4248 18.8385 22.2623 17.1686 22.5113 15.3655C22.7604 13.5625 22.407 11.7275 21.5064 10.1466C20.6058 8.5657 19.2084 7.32767 17.532 6.62544C15.8557 5.9232 13.9945 5.7962 12.2386 6.26424C10.4827 6.73228 8.93067 7.76906 7.82436 9.21301C6.71804 10.657 6.1196 12.427 6.1223 14.2472C6.12083 15.7565 6.5375 17.2366 7.32591 18.5227L7.54105 18.878L6.71538 21.9536L9.81453 21.1264Z" fill="#121313"/>
<path fill-rule="evenodd" clip-rule="evenodd" d="M9.81453 21.1264L10.1576 21.3303C11.7206 22.2584 13.5463 22.6425 15.35 22.4227C17.1537 22.2028 18.8342 21.3915 20.1295 20.115C21.4248 18.8385 22.2623 17.1686 22.5113 15.3655C22.7604 13.5625 22.407 11.7275 21.5064 10.1466C20.6058 8.5657 19.2084 7.32767 17.532 6.62544C15.8557 5.9232 13.9945 5.7962 12.2386 6.26424C10.4827 6.73228 8.93067 7.76906 7.82436 9.21301C6.71804 10.657 6.1196 12.427 6.1223 14.2472C6.12083 15.7565 6.5375 17.2366 7.32591 18.5227L7.54105 18.878L6.71538 21.9536L9.81453 21.1264ZM17.4523 15.3277C17.7042 15.3853 17.9397 15.4997 18.1408 15.6621C18.5362 15.8951 19.1816 16.1806 19.2862 16.664C19.3299 16.9005 19.2994 17.1446 19.199 17.363C19.0282 17.7245 18.7712 18.0385 18.4508 18.2772C18.1305 18.5159 17.7564 18.672 17.3616 18.7319C16.6687 18.8106 15.9675 18.6999 15.3323 18.4115C14.7209 18.2018 14.1356 17.9223 13.588 17.5785C12.4967 16.9021 11.5468 16.0198 10.7912 14.9806C10.5587 14.6643 10.3433 14.3357 10.1458 13.9962C9.87211 13.5531 9.66447 13.0723 9.52945 12.5691C9.47629 12.3597 9.44895 12.1445 9.44805 11.9284C9.43471 11.5435 9.50771 11.1606 9.66167 10.8078C9.81563 10.455 10.0466 10.1412 10.3377 9.88967C10.5053 9.7402 10.7125 9.64253 10.9344 9.60842C11.1562 9.57431 11.3831 9.60523 11.5878 9.69745C11.9846 10.0333 12.2772 10.476 12.4309 10.9731C12.6297 11.3277 12.7226 11.7321 12.6984 12.1381C12.5893 12.5062 12.3893 12.8407 12.1169 13.1108C12.0391 13.1775 11.9902 13.2719 11.9804 13.374C11.9706 13.4762 12.0008 13.5781 12.0646 13.6584C12.8121 14.945 13.9719 15.9406 15.3556 16.4835C15.4326 16.5257 15.5223 16.5384 15.608 16.5191C15.6936 16.4998 15.7693 16.4498 15.8208 16.3786C16.065 16.0815 16.3092 15.4874 16.6871 15.3301C16.9387 15.271 17.2004 15.2702 17.4523 15.3277Z" fill="#121313"/>
</svg>
